# xmcd
#
# Track frame offsets:
#	150
#	14637
#	28932
#	43555
#	59990
#	74037
#	89240
#	100670
#	119417
#	132857
#	150050
#	163917
#	177490
#	195070
#	210767
#
# Disc length: 3033 seconds
#
# Revision: 3
# Processed by: cddbd v1.5.2PL0 Copyright (c) Steve Scherf et al.
# Submitted via: audiograbber 1.83.01
#
DISCID=d30bd70f
DTITLE=MS® - 15 Rotundos Exitos Ariola
DYEAR=1986
DGENRE=Ballad
TTITLE0=Jose Jose - ¿Y Que?
TTITLE1=Estela Nuñez - Esta Noche
TTITLE2=Camilo Sesto - Ven O Voy
TTITLE3=Rocio Durcal - Perdoname, Olvidalo Ft Juan Gabriel
TTITLE4=Chayanne - Loco
TTITLE5=Agustin Pantoja - Señora De Lujo
TTITLE6=Lucia Mendez - Don Corazon
TTITLE7=Juan Gabriel - Besame
TTITLE8=Lucia Mendez - Corazon De Piedra
TTITLE9=Napoleon - Corazon, Corazon
TTITLE10=Lucha Villa - Ya No Me Interesas
TTITLE11=Jose Jose - Payaso
TTITLE12=Angela Carrasco - Alguien Como Tu
TTITLE13=Agustin Lara - Me Dejaste
TTITLE14=Rocio Durcal - Dejame Vivir
EXTD=MS®
EXTT0=
EXTT1=
EXTT2=
EXTT3=
EXTT4=
EXTT5=
EXTT6=
EXTT7=
EXTT8=
EXTT9=
EXTT10=
EXTT11=
EXTT12=
EXTT13=
EXTT14=
PLAYORDER=
